<?xml version="1.0" standalone="no"?>
<!DOCTYPE svg PUBLIC "-//W3C//DTD SVG 20010904//EN"
 "http://www.w3.org/TR/2001/REC-SVG-20010904/DTD/svg10.dtd">
<svg version="1.0" xmlns="http://www.w3.org/2000/svg"
 width="16.000000pt" height="16.000000pt" viewBox="0 0 16.000000 16.000000"
 preserveAspectRatio="xMidYMid meet">
<metadata>
Created by potrace 1.11, written by Peter Selinger 2001-2013
</metadata>
<g transform="translate(0.000000,16.000000) scale(0.002432,-0.002432)"
fill="#000000" stroke="none">
<path d="M3230 6137 c-30 -18 -93 -54 -140 -79 -47 -25 -134 -73 -194 -107
-60 -34 -110 -61 -112 -61 -2 0 -25 -13 -52 -29 -59 -35 -82 -47 -351 -196
-118 -65 -236 -131 -263 -146 -27 -16 -51 -29 -53 -29 -3 0 -39 -20 -81 -45
-41 -25 -77 -45 -79 -45 -1 0 -97 -52 -211 -116 -115 -64 -314 -174 -441 -245
-128 -71 -257 -142 -285 -158 -112 -63 -165 -92 -215 -118 l-53 -27 0 -1448
c0 -872 4 -1448 9 -1448 5 0 44 -20 85 -45 42 -25 78 -45 80 -45 3 0 48 -25
101 -55 54 -30 99 -55 101 -55 2 0 25 -13 52 -29 27 -16 76 -44 108 -62 33
-18 73 -40 89 -49 17 -9 59 -33 95 -52 36 -20 103 -57 150 -83 98 -55 237
-132 330 -182 36 -20 70 -39 75 -43 6 -4 42 -24 80 -45 39 -21 333 -184 653
-362 l584 -324 41 24 c23 13 69 39 102 57 52 29 106 59 350 195 28 15 79 43
115 63 36 19 70 38 75 42 6 4 42 24 80 45 39 21 104 57 145 80 41 23 100 55
130 72 30 16 96 53 145 80 118 66 167 93 240 133 33 18 65 36 70 40 6 4 42 24
80 44 39 21 84 45 100 55 17 10 145 81 285 158 140 78 280 155 310 172 30 17
115 63 187 103 l133 73 0 1446 0 1445 -42 22 c-45 22 -87 45 -303 167 -71 40
-157 87 -190 105 -33 18 -94 52 -135 75 -41 23 -100 56 -130 72 -30 17 -138
77 -240 133 -102 57 -203 113 -225 125 -22 12 -80 44 -130 72 -84 47 -119 66
-235 131 -25 13 -106 58 -180 100 -74 41 -153 85 -175 97 -116 63 -184 101
-217 122 -21 13 -39 23 -41 23 -3 0 -37 18 -78 41 -41 22 -103 57 -139 77 -36
19 -78 44 -95 54 -16 10 -32 18 -35 18 -3 -1 -30 -15 -60 -33z m104 -666 c33
-20 93 -54 271 -152 61 -33 117 -64 125 -69 8 -5 51 -29 95 -53 44 -25 229
-127 410 -228 182 -100 351 -194 377 -208 47 -26 315 -174 418 -232 30 -17 99
-56 153 -86 l97 -54 0 -1097 0 -1097 -22 -15 c-13 -8 -32 -19 -43 -26 -257
-142 -510 -283 -545 -302 -25 -13 -58 -32 -75 -42 -16 -10 -55 -31 -85 -48
-30 -16 -133 -73 -229 -126 -96 -54 -202 -112 -235 -131 -34 -18 -215 -119
-404 -224 -189 -105 -349 -191 -356 -191 -6 0 -16 4 -22 9 -5 5 -40 26 -79 47
-38 20 -146 80 -240 132 -93 52 -192 107 -220 122 -27 15 -70 39 -95 53 -39
22 -223 123 -363 201 -26 14 -68 38 -95 52 -26 15 -85 48 -132 74 -80 45 -113
63 -228 126 -130 73 -432 240 -467 260 l-40 22 0 1103 0 1102 225 125 c124 68
248 137 275 152 86 47 438 242 475 263 19 11 60 33 90 50 30 17 89 49 130 72
41 23 107 59 145 81 39 21 112 62 164 91 51 29 95 53 97 53 2 0 26 14 54 30
29 17 84 48 123 69 40 22 99 55 132 74 71 42 78 43 119 18z"/>
</g>
</svg>
